<svg width="1512" height="982" viewBox="0 0 1512 982" fill="none" xmlns="http://www.w3.org/2000/svg">
<g clip-path="url(#clip0_1853_4065)">
<rect width="1512" height="982" fill="white"/>
<path d="M49.0727 308.911L48.9439 308.849C47.9932 307.954 47.1713 307.121 46.2206 306.226C45.9037 305.928 45.9834 305.525 46.2511 305.359C46.5884 305.078 47.0443 305.149 47.2324 305.386C48.0544 306.219 49.0051 307.114 49.827 307.947C50.1439 308.245 50.0642 308.648 49.7964 308.815C49.6574 309.043 49.3303 309.034 49.0727 308.911ZM40.2402 299.402C40.1114 299.341 39.9826 299.279 40.0521 299.166C38.2405 296.684 36.4985 294.088 35.0835 291.501C34.9649 291.15 35.0446 290.747 35.4412 290.642C35.8377 290.537 36.2936 290.608 36.4122 290.959C37.8272 293.545 39.5693 296.141 41.3215 298.448C41.5096 298.685 41.4299 299.088 41.0926 299.368C40.8248 299.534 40.4978 299.525 40.2402 299.402ZM31.4928 283.759C31.364 283.697 31.2352 283.636 31.1759 283.46C30.0287 280.707 29.1493 277.788 28.3987 274.93C28.2801 274.579 28.4886 274.237 29.014 274.194C29.4106 274.089 29.797 274.273 29.8461 274.738C30.5967 277.596 31.4168 280.34 32.564 283.093C32.6826 283.444 32.4741 283.786 32.0775 283.891C31.8199 283.768 31.6216 283.82 31.4928 283.759ZM27.3164 266.619C27.0588 266.496 26.9995 266.321 26.9402 266.146C26.5862 263.183 26.5593 260.229 26.6612 257.336C26.6714 257.047 27.0087 256.767 27.4053 256.662C27.7324 256.671 28.0493 256.969 28.1679 257.32C28.066 260.213 28.1624 263.053 28.5164 266.015C28.5062 266.305 28.2977 266.646 27.9011 266.751C27.6435 266.628 27.4452 266.681 27.3164 266.619ZM27.8685 249.089C27.6109 248.966 27.4228 248.73 27.433 248.44C27.9315 245.443 28.6876 242.569 29.5725 239.756C29.6522 239.352 30.0487 239.248 30.5046 239.318C30.9605 239.388 31.0791 239.739 30.9995 240.142C30.1146 242.955 29.428 245.716 28.8007 248.652C28.721 249.055 28.4532 249.221 27.9973 249.151L27.8685 249.089ZM33.5049 232.22C33.1185 232.036 33 231.685 33.1389 231.458C33.8441 230.029 34.7475 228.549 35.5815 227.182C36.2764 226.043 37.0409 224.79 37.8646 223.713C38.0731 223.371 38.4697 223.266 38.8561 223.45C39.2425 223.635 39.3611 223.985 39.1526 224.327C38.3288 225.405 37.5644 226.658 36.8694 227.796C36.0355 229.163 35.2016 230.53 34.4964 231.958C34.2879 232.3 33.8913 232.405 33.5049 232.22ZM43.9172 217.336C43.7884 217.275 43.7884 217.275 43.9172 217.336C43.4715 216.976 43.4817 216.687 43.6901 216.345C45.7342 214.085 48.1054 211.835 50.4664 209.873C50.8037 209.593 51.2596 209.663 51.4477 209.9C51.7646 210.198 51.6849 210.601 51.4172 210.768C49.0562 212.729 46.7545 214.866 44.7104 217.126C44.5714 217.354 44.1748 217.459 43.9172 217.336ZM58.1628 205.163C58.034 205.102 58.0341 205.102 57.9053 205.04C57.7171 204.803 57.7968 204.4 58.0646 204.234C60.812 202.457 63.4899 200.793 66.3559 199.367C66.6237 199.2 67.0796 199.271 67.3965 199.569C67.5846 199.806 67.5049 200.209 67.1676 200.489C64.3016 201.916 61.6237 203.579 58.9458 205.242C58.7475 205.295 58.4204 205.286 58.1628 205.163ZM75.2996 196.428C75.1708 196.367 75.042 196.305 74.9827 196.13C74.864 195.779 75.0725 195.438 75.3403 195.271C78.3944 194.081 81.6367 193.128 84.8094 192.289C85.206 192.184 85.5924 192.369 85.711 192.72C85.8296 193.07 85.6211 193.412 85.2245 193.517C82.1213 194.242 79.0079 195.256 75.9537 196.446C75.7555 196.499 75.5572 196.551 75.2996 196.428ZM94.4545 191.744C94.3257 191.683 94.1376 191.446 94.0783 191.271C93.9597 190.92 94.2969 190.64 94.6935 190.535C97.9154 190.16 101.068 189.9 104.279 189.815L104.735 189.885C105.062 189.894 105.379 190.192 105.498 190.543C105.488 190.832 105.15 191.113 104.754 191.217L104.298 191.147C101.156 191.118 98.0034 191.379 94.9104 191.815C94.7816 191.753 94.5833 191.806 94.4545 191.744ZM114.309 191.365C114.051 191.242 113.863 191.005 114.002 190.777C114.013 190.488 114.35 190.208 114.677 190.217C116.243 190.376 117.878 190.421 119.316 190.518C121.08 190.625 122.844 190.731 124.539 190.952C124.866 190.961 125.183 191.259 125.173 191.548C125.162 191.838 124.825 192.118 124.498 192.109C122.734 192.002 120.97 191.896 119.275 191.675C117.709 191.516 116.073 191.471 114.636 191.374C114.438 191.426 114.309 191.365 114.309 191.365ZM134.182 192.318C133.925 192.195 133.865 192.019 133.806 191.844C133.816 191.555 134.153 191.275 134.55 191.17C135.928 191.092 137.236 191.128 138.614 191.05C140.517 190.929 142.49 190.694 144.334 190.397C144.731 190.292 145.048 190.59 145.166 190.941C145.285 191.292 144.948 191.572 144.551 191.677C142.578 191.912 140.605 192.147 138.633 192.382C137.255 192.46 136.006 192.6 134.569 192.502C134.311 192.379 134.182 192.318 134.182 192.318ZM153.544 189.203C153.415 189.142 153.286 189.08 153.227 188.905C153.108 188.554 153.317 188.212 153.713 188.108C156.757 187.207 159.811 186.017 162.677 184.591C162.945 184.424 163.401 184.495 163.648 184.907C163.836 185.144 163.757 185.547 163.291 185.766C160.296 187.131 157.172 188.434 154.128 189.335C153.93 189.387 153.801 189.326 153.544 189.203ZM170.928 180.88C170.799 180.819 170.799 180.819 170.67 180.757C170.482 180.521 170.433 180.056 170.83 179.951C173.379 178.226 175.938 176.212 178.17 174.189C178.507 173.909 178.835 173.918 179.151 174.216C179.468 174.514 179.458 174.804 179.121 175.084C176.819 177.221 174.26 179.235 171.641 181.074C171.513 181.012 171.185 181.003 170.928 180.88ZM184.599 168.286C184.213 168.102 184.163 167.637 184.302 167.409C185.602 165.824 186.645 164.115 187.687 162.407C188.174 161.61 188.73 160.699 189.087 159.84C189.296 159.498 189.692 159.393 190.079 159.578C190.465 159.762 190.584 160.113 190.375 160.454C189.819 161.366 189.462 162.224 188.906 163.135C187.863 164.844 186.692 166.491 185.323 168.19C185.253 168.304 184.857 168.409 184.599 168.286ZM192.95 152.419C192.693 152.296 192.574 151.945 192.584 151.656C193.39 149.246 194.136 146.661 194.912 143.208C194.992 142.805 195.388 142.7 195.715 142.709C196.171 142.779 196.29 143.13 196.28 143.419C195.503 146.872 194.688 149.571 193.883 151.981C193.803 152.384 193.406 152.489 192.95 152.419C193.079 152.48 193.079 152.48 192.95 152.419ZM197.417 135.286C197.16 135.163 196.972 134.926 196.982 134.637C197.818 131.359 198.494 128.888 199.23 126.592L199.379 126.075C199.459 125.672 199.855 125.567 200.311 125.637C200.767 125.708 200.886 126.059 200.806 126.462L200.657 126.979C199.921 129.275 199.245 131.746 198.478 134.91C198.399 135.313 198.002 135.418 197.675 135.409C197.546 135.347 197.546 135.347 197.417 135.286ZM203.183 118.478C202.925 118.355 202.678 117.943 202.817 117.716C203.949 115.315 205.21 112.975 206.6 110.697C206.808 110.356 207.017 110.014 207.225 109.672C207.434 109.331 207.831 109.226 208.217 109.41C208.603 109.594 208.722 109.945 208.513 110.287C208.305 110.629 208.096 110.97 207.888 111.312C206.568 113.476 205.306 115.815 204.174 118.216C204.035 118.444 203.569 118.663 203.183 118.478ZM212.892 103.111C212.505 102.927 212.456 102.462 212.595 102.235C214.58 99.7994 216.624 97.5395 218.926 95.4025C219.263 95.1223 219.59 95.1313 219.907 95.4296C220.224 95.7278 220.214 96.0171 219.876 96.2973C217.644 98.3204 215.531 100.694 213.615 103.016C213.605 103.305 213.149 103.234 212.892 103.111ZM226.375 90.2805C226.246 90.219 226.246 90.219 226.117 90.1575C225.929 89.9207 225.88 89.4561 226.148 89.2898C228.637 87.3896 231.315 85.7262 234.053 84.2382L234.251 84.1857C234.519 84.0194 234.975 84.0899 235.291 84.3881C235.48 84.6249 235.4 85.0281 235.063 85.3083L234.864 85.3608C232.127 86.8488 229.578 88.5736 227.029 90.2985C226.959 90.4124 226.632 90.4034 226.375 90.2805ZM243.264 81.1334C243.135 81.072 243.006 81.0105 242.947 80.8352C242.828 80.4845 243.037 80.1428 243.305 79.9765C246.359 78.7867 249.601 77.8337 252.704 77.1085C253.101 77.0036 253.487 77.188 253.606 77.5387C253.725 77.8894 253.516 78.2311 253.119 78.336C250.016 79.0611 246.774 80.0141 243.918 81.1515C243.65 81.3178 243.393 81.1949 243.264 81.1334ZM262.409 76.7389C262.151 76.616 262.092 76.4407 262.033 76.2653C261.914 75.9146 262.251 75.6344 262.648 75.5295C265.998 75.2164 269.408 75.0788 272.679 75.1689C273.006 75.1779 273.323 75.4761 273.313 75.7654C273.303 76.0546 272.966 76.3349 272.639 76.3259C269.368 76.2358 266.156 76.321 262.805 76.634C262.736 76.7479 262.538 76.8004 262.409 76.7389ZM282.094 77.4549C281.836 77.332 281.648 77.0952 281.658 76.806C281.738 76.4028 282.134 76.2979 282.462 76.3069C285.782 76.8617 289.022 77.8195 292.064 78.8298C292.451 79.0142 292.569 79.3649 292.43 79.5927C292.222 79.9343 291.825 80.0392 291.567 79.9163C288.595 78.7921 285.414 78.0097 282.163 77.3411C282.223 77.5164 282.223 77.5164 282.094 77.4549Z" fill="#0B0033" fill-opacity="0.15"/>
<path d="M1296.57 948.201L1296.45 948.146C1295.61 947.355 1294.88 946.618 1294.04 945.827C1293.76 945.563 1293.83 945.207 1294.07 945.06C1294.37 944.812 1294.77 944.874 1294.94 945.084C1295.67 945.82 1296.51 946.612 1297.23 947.348C1297.51 947.612 1297.44 947.969 1297.21 948.116C1297.08 948.317 1296.79 948.309 1296.57 948.201ZM1288.76 939.793C1288.64 939.739 1288.53 939.684 1288.59 939.584C1286.99 937.389 1285.45 935.094 1284.2 932.806C1284.09 932.496 1284.16 932.14 1284.51 932.047C1284.86 931.954 1285.27 932.016 1285.37 932.327C1286.62 934.614 1288.16 936.909 1289.71 938.949C1289.88 939.158 1289.81 939.515 1289.51 939.763C1289.27 939.91 1288.98 939.902 1288.76 939.793ZM1281.02 925.96C1280.91 925.906 1280.79 925.851 1280.74 925.696C1279.73 923.262 1278.95 920.68 1278.29 918.153C1278.18 917.843 1278.36 917.541 1278.83 917.502C1279.18 917.41 1279.52 917.573 1279.56 917.984C1280.23 920.511 1280.95 922.937 1281.97 925.372C1282.07 925.682 1281.89 925.984 1281.54 926.077C1281.31 925.968 1281.13 926.014 1281.02 925.96ZM1277.33 910.805C1277.1 910.696 1277.05 910.541 1277 910.386C1276.68 907.766 1276.66 905.154 1276.75 902.596C1276.76 902.341 1277.06 902.093 1277.41 902C1277.7 902.008 1277.98 902.272 1278.08 902.582C1277.99 905.14 1278.08 907.651 1278.39 910.271C1278.38 910.527 1278.2 910.829 1277.85 910.921C1277.62 910.813 1277.44 910.859 1277.33 910.805ZM1277.82 895.304C1277.59 895.195 1277.42 894.986 1277.43 894.73C1277.87 892.08 1278.54 889.538 1279.32 887.051C1279.39 886.694 1279.74 886.601 1280.15 886.664C1280.55 886.726 1280.66 887.036 1280.58 887.393C1279.8 889.88 1279.2 892.321 1278.64 894.917C1278.57 895.273 1278.33 895.421 1277.93 895.358L1277.82 895.304ZM1282.8 880.388C1282.46 880.225 1282.35 879.915 1282.48 879.713C1283.1 878.45 1283.9 877.141 1284.64 875.932C1285.25 874.925 1285.93 873.817 1286.66 872.865C1286.84 872.563 1287.19 872.47 1287.53 872.633C1287.87 872.796 1287.98 873.106 1287.79 873.408C1287.07 874.361 1286.39 875.469 1285.78 876.476C1285.04 877.684 1284.3 878.893 1283.68 880.156C1283.49 880.458 1283.14 880.551 1282.8 880.388ZM1292.01 867.226C1291.89 867.172 1291.89 867.172 1292.01 867.226C1291.61 866.908 1291.62 866.652 1291.81 866.35C1293.61 864.352 1295.71 862.362 1297.8 860.627C1298.1 860.379 1298.5 860.442 1298.67 860.651C1298.95 860.915 1298.88 861.271 1298.64 861.418C1296.55 863.153 1294.52 865.042 1292.71 867.041C1292.59 867.242 1292.24 867.335 1292.01 867.226ZM1304.6 856.462C1304.49 856.408 1304.49 856.408 1304.38 856.354C1304.21 856.144 1304.28 855.788 1304.52 855.641C1306.95 854.069 1309.31 852.598 1311.85 851.337C1312.09 851.19 1312.49 851.252 1312.77 851.516C1312.94 851.725 1312.86 852.082 1312.57 852.329C1310.03 853.591 1307.66 855.062 1305.3 856.533C1305.12 856.579 1304.83 856.571 1304.6 856.462ZM1319.76 848.739C1319.64 848.684 1319.53 848.63 1319.48 848.475C1319.37 848.165 1319.56 847.863 1319.79 847.716C1322.49 846.663 1325.36 845.821 1328.17 845.079C1328.52 844.986 1328.86 845.149 1328.96 845.459C1329.07 845.769 1328.88 846.071 1328.53 846.164C1325.79 846.805 1323.04 847.702 1320.34 848.755C1320.16 848.801 1319.98 848.847 1319.76 848.739ZM1336.69 844.597C1336.58 844.543 1336.41 844.333 1336.36 844.178C1336.26 843.868 1336.56 843.62 1336.91 843.528C1339.75 843.196 1342.54 842.966 1345.38 842.891L1345.79 842.953C1346.07 842.961 1346.35 843.225 1346.46 843.535C1346.45 843.79 1346.15 844.038 1345.8 844.131L1345.4 844.069C1342.62 844.043 1339.83 844.274 1337.1 844.659C1336.98 844.605 1336.81 844.651 1336.69 844.597ZM1354.25 844.261C1354.02 844.153 1353.86 843.943 1353.98 843.742C1353.99 843.486 1354.29 843.238 1354.58 843.246C1355.96 843.387 1357.41 843.427 1358.68 843.513C1360.24 843.607 1361.8 843.701 1363.3 843.896C1363.59 843.904 1363.87 844.168 1363.86 844.424C1363.85 844.679 1363.55 844.927 1363.26 844.919C1361.7 844.825 1360.14 844.731 1358.64 844.536C1357.26 844.395 1355.81 844.356 1354.54 844.269C1354.36 844.316 1354.25 844.261 1354.25 844.261ZM1371.82 845.104C1371.6 844.995 1371.54 844.84 1371.49 844.685C1371.5 844.429 1371.8 844.182 1372.15 844.089C1373.37 844.02 1374.52 844.052 1375.74 843.983C1377.43 843.876 1379.17 843.668 1380.8 843.406C1381.15 843.313 1381.43 843.577 1381.54 843.887C1381.64 844.197 1381.34 844.445 1380.99 844.537C1379.25 844.745 1377.5 844.953 1375.76 845.161C1374.54 845.23 1373.44 845.353 1372.17 845.267C1371.94 845.158 1371.82 845.104 1371.82 845.104ZM1388.94 842.35C1388.83 842.295 1388.72 842.241 1388.66 842.086C1388.56 841.776 1388.74 841.474 1389.09 841.381C1391.79 840.585 1394.49 839.533 1397.02 838.271C1397.26 838.124 1397.66 838.187 1397.88 838.551C1398.05 838.76 1397.97 839.117 1397.56 839.31C1394.91 840.517 1392.15 841.67 1389.46 842.466C1389.29 842.513 1389.17 842.459 1388.94 842.35ZM1404.32 834.991C1404.2 834.936 1404.2 834.936 1404.09 834.882C1403.92 834.672 1403.88 834.262 1404.23 834.169C1406.48 832.644 1408.75 830.863 1410.72 829.074C1411.02 828.826 1411.31 828.834 1411.59 829.098C1411.87 829.361 1411.86 829.617 1411.56 829.865C1409.53 831.755 1407.26 833.536 1404.95 835.162C1404.83 835.107 1404.54 835.099 1404.32 834.991ZM1416.4 823.854C1416.06 823.691 1416.02 823.28 1416.14 823.079C1417.29 821.677 1418.21 820.166 1419.14 818.656C1419.57 817.951 1420.06 817.145 1420.37 816.386C1420.56 816.083 1420.91 815.991 1421.25 816.154C1421.59 816.317 1421.7 816.627 1421.51 816.929C1421.02 817.735 1420.7 818.494 1420.21 819.3C1419.29 820.81 1418.26 822.267 1417.04 823.769C1416.98 823.87 1416.63 823.963 1416.4 823.854ZM1423.79 809.823C1423.56 809.715 1423.46 809.405 1423.47 809.149C1424.18 807.018 1424.84 804.732 1425.52 801.679C1425.59 801.322 1425.94 801.23 1426.23 801.238C1426.64 801.3 1426.74 801.61 1426.73 801.866C1426.05 804.919 1425.33 807.306 1424.61 809.436C1424.54 809.793 1424.19 809.886 1423.79 809.823C1423.9 809.878 1423.9 809.878 1423.79 809.823ZM1427.74 794.674C1427.51 794.565 1427.34 794.356 1427.35 794.1C1428.09 791.202 1428.69 789.017 1429.34 786.986L1429.47 786.529C1429.54 786.173 1429.89 786.08 1430.3 786.142C1430.7 786.205 1430.81 786.515 1430.74 786.871L1430.6 787.328C1429.95 789.359 1429.35 791.544 1428.68 794.341C1428.61 794.698 1428.26 794.79 1427.97 794.783C1427.85 794.728 1427.85 794.728 1427.74 794.674ZM1432.84 779.812C1432.61 779.703 1432.39 779.339 1432.51 779.137C1433.51 777.014 1434.63 774.946 1435.86 772.932C1436.04 772.63 1436.23 772.327 1436.41 772.025C1436.6 771.723 1436.95 771.63 1437.29 771.793C1437.63 771.956 1437.73 772.267 1437.55 772.569C1437.37 772.871 1437.18 773.173 1437 773.475C1435.83 775.389 1434.71 777.457 1433.71 779.58C1433.59 779.782 1433.18 779.975 1432.84 779.812ZM1441.42 766.224C1441.08 766.061 1441.04 765.65 1441.16 765.449C1442.91 763.295 1444.72 761.297 1446.76 759.407C1447.06 759.159 1447.34 759.167 1447.63 759.431C1447.91 759.695 1447.9 759.951 1447.6 760.198C1445.62 761.987 1443.76 764.086 1442.06 766.139C1442.05 766.395 1441.65 766.332 1441.42 766.224ZM1453.34 754.878C1453.23 754.824 1453.23 754.824 1453.12 754.769C1452.95 754.56 1452.91 754.149 1453.14 754.002C1455.35 752.322 1457.71 750.851 1460.13 749.535L1460.31 749.489C1460.55 749.342 1460.95 749.404 1461.23 749.668C1461.4 749.877 1461.32 750.234 1461.03 750.481L1460.85 750.528C1458.43 751.844 1456.18 753.369 1453.92 754.894C1453.86 754.995 1453.57 754.987 1453.34 754.878ZM1468.28 746.79C1468.16 746.736 1468.05 746.681 1468 746.526C1467.89 746.216 1468.08 745.914 1468.31 745.767C1471.02 744.715 1473.88 743.872 1476.63 743.231C1476.98 743.138 1477.32 743.301 1477.42 743.611C1477.53 743.921 1477.34 744.223 1476.99 744.316C1474.25 744.957 1471.38 745.8 1468.86 746.806C1468.62 746.953 1468.39 746.844 1468.28 746.79ZM1485.21 742.904C1484.98 742.795 1484.93 742.64 1484.87 742.485C1484.77 742.175 1485.07 741.927 1485.42 741.835C1488.38 741.558 1491.4 741.436 1494.29 741.516C1494.58 741.524 1494.86 741.787 1494.85 742.043C1494.84 742.299 1494.54 742.547 1494.25 742.539C1491.36 742.459 1488.52 742.535 1485.56 742.811C1485.5 742.912 1485.32 742.958 1485.21 742.904ZM1502.61 743.537C1502.39 743.429 1502.22 743.219 1502.23 742.963C1502.3 742.607 1502.65 742.514 1502.94 742.522C1505.87 743.013 1508.74 743.86 1511.43 744.753C1511.77 744.916 1511.88 745.226 1511.75 745.427C1511.57 745.73 1511.22 745.822 1510.99 745.714C1508.36 744.72 1505.55 744.028 1502.67 743.436C1502.73 743.592 1502.73 743.592 1502.61 743.537Z" fill="#0B0033" fill-opacity="0.15"/>
<path d="M341.674 99.6023C341.5 99.5817 341.151 99.5403 341.03 99.3395L324.82 82.1277L303.482 82.9529C303.134 82.9116 302.786 82.8702 302.543 82.4686C302.248 82.2471 302.407 81.7066 302.513 81.3463L308.913 63.2739L298.392 40.211C298.323 39.83 298.255 39.449 298.588 38.9292C298.869 38.5895 299.149 38.2499 299.725 38.1317L395.331 15.9108C395.906 15.7926 396.376 16.0348 396.618 16.4364C396.861 16.8381 396.876 17.3992 396.543 17.919L342.931 99.0057C342.651 99.3453 342.371 99.685 341.795 99.8032C341.848 99.623 341.674 99.6023 341.674 99.6023ZM325.79 79.4459C325.964 79.4666 326.312 79.5079 326.433 79.7088L341.81 96.0759L391.953 19.4255L301.005 40.521L310.973 62.3995C311.095 62.6004 311.163 62.9814 311.057 63.3417L305.202 80.1736L325.441 79.4046C325.79 79.4459 325.79 79.4459 325.79 79.4459Z" fill="#0B0033" fill-opacity="0.15"/>
<path d="M308.002 66.2725C307.648 66.2305 307.348 66.0055 307.102 65.5974C306.91 65.0063 307.179 64.0912 307.995 63.8091L392.962 18.9627C393.601 18.6597 394.485 18.7647 394.624 19.5388C394.762 20.3129 394.547 21.045 393.731 21.327L308.764 66.1735C308.533 66.3355 308.356 66.3144 308.002 66.2725Z" fill="#0B0033" fill-opacity="0.15"/>
<path d="M326.869 83.091C326.7 83.0707 326.361 83.0301 326.243 82.8331C325.838 82.4187 325.927 81.5148 326.42 81.0251L391.131 20.9155C391.625 20.4258 392.523 20.3505 392.928 20.7649C393.333 21.1793 393.245 22.0832 392.751 22.5728L328.04 82.6825C327.768 83.0157 327.377 83.1518 326.869 83.091Z" fill="#0B0033" fill-opacity="0.15"/>
<path d="M304.129 81.8453C303.781 81.804 303.486 81.5829 303.365 81.3823C303.002 80.7807 303.214 80.061 303.894 79.5832L383.451 25.1572C384.131 24.6794 384.827 24.762 385.19 25.3636C385.553 25.9653 385.341 26.6849 384.661 27.1627L305.104 81.5887C304.878 81.748 304.477 81.8866 304.129 81.8453Z" fill="#0B0033" fill-opacity="0.15"/>
<path d="M1001.19 411.794L1001.37 411.816C1002.95 412.404 1004.34 412.97 1005.91 413.559C1006.44 413.755 1006.55 414.165 1006.32 414.402C1006.06 414.768 1005.49 414.831 1005.14 414.657C1003.75 414.091 1002.18 413.502 1000.79 412.936C1000.26 412.74 1000.15 412.33 1000.38 412.093C1000.43 411.834 1000.82 411.749 1001.19 411.794ZM1016.42 418.409C1016.61 418.431 1016.79 418.453 1016.76 418.583C1020.16 420.451 1023.53 422.448 1026.5 424.531C1026.82 424.834 1026.93 425.244 1026.52 425.459C1026.1 425.673 1025.53 425.736 1025.21 425.433C1022.23 423.35 1018.86 421.353 1015.63 419.636C1015.29 419.462 1015.18 419.052 1015.43 418.686C1015.67 418.449 1016.06 418.364 1016.42 418.409ZM1034.66 430.948C1034.84 430.97 1035.03 430.992 1035.18 431.144C1037.93 433.463 1040.45 436.019 1042.78 438.552C1043.1 438.855 1043.02 439.244 1042.42 439.436C1042.01 439.65 1041.46 439.583 1041.17 439.151C1038.84 436.617 1036.48 434.213 1033.73 431.894C1033.41 431.591 1033.49 431.203 1033.9 430.988C1034.27 431.033 1034.48 430.926 1034.66 430.948ZM1048.26 446.233C1048.63 446.278 1048.79 446.429 1048.94 446.581C1050.86 449.329 1052.39 452.161 1053.73 454.972C1053.87 455.253 1053.61 455.619 1053.19 455.833C1052.8 455.918 1052.28 455.722 1051.96 455.419C1050.62 452.608 1049.07 449.905 1047.15 447.157C1047.02 446.876 1047.09 446.488 1047.5 446.274C1047.87 446.318 1048.08 446.211 1048.26 446.233ZM1056.48 463.248C1056.85 463.292 1057.19 463.466 1057.32 463.747C1058.25 466.772 1058.81 469.752 1059.19 472.71C1059.3 473.121 1058.89 473.335 1058.32 473.398C1057.74 473.461 1057.42 473.157 1057.31 472.747C1056.94 469.789 1056.35 466.938 1055.6 463.935C1055.49 463.525 1055.72 463.288 1056.3 463.226L1056.48 463.248ZM1058.37 481.082C1058.92 481.148 1059.23 481.452 1059.19 481.71C1059.08 483.286 1058.76 484.968 1058.47 486.521C1058.22 487.815 1057.96 489.238 1057.53 490.51C1057.46 490.898 1057.04 491.113 1056.49 491.046C1055.94 490.979 1055.63 490.676 1055.7 490.288C1056.13 489.016 1056.39 487.593 1056.64 486.298C1056.93 484.746 1057.22 483.193 1057.33 481.617C1057.4 481.229 1057.82 481.015 1058.37 481.082ZM1053.62 498.374C1053.8 498.396 1053.8 498.396 1053.62 498.374C1054.32 498.592 1054.46 498.873 1054.39 499.262C1053.12 502.02 1051.46 504.863 1049.67 507.425C1049.41 507.791 1048.84 507.853 1048.5 507.679C1047.97 507.483 1047.86 507.073 1048.09 506.836C1049.89 504.274 1051.52 501.561 1052.79 498.803C1052.84 498.544 1053.25 498.329 1053.62 498.374ZM1042.97 514.156C1043.15 514.179 1043.15 514.179 1043.34 514.201C1043.68 514.375 1043.79 514.785 1043.56 515.022C1041.21 517.517 1038.9 519.883 1036.24 522.075C1036.01 522.311 1035.43 522.374 1034.91 522.178C1034.57 522.004 1034.46 521.594 1034.71 521.228C1037.37 519.036 1039.69 516.67 1042.01 514.304C1042.21 514.197 1042.6 514.112 1042.97 514.156ZM1027.17 527.46C1027.36 527.482 1027.54 527.504 1027.7 527.656C1028.02 527.959 1027.94 528.348 1027.71 528.584C1024.71 530.602 1021.37 532.447 1018.05 534.162C1017.63 534.376 1017.08 534.309 1016.77 534.006C1016.45 533.703 1016.52 533.314 1016.94 533.1C1020.23 531.515 1023.39 529.648 1026.39 527.63C1026.6 527.523 1026.81 527.416 1027.17 527.46ZM1006.95 537.446C1007.13 537.468 1007.47 537.642 1007.63 537.794C1007.95 538.097 1007.69 538.463 1007.28 538.677C1003.66 539.96 1000.08 541.112 996.331 542.113L995.757 542.176C995.367 542.261 994.842 542.065 994.524 541.762C994.39 541.481 994.646 541.115 995.061 540.9L995.634 540.838C999.356 539.966 1002.94 538.813 1006.37 537.509C1006.55 537.531 1006.76 537.424 1006.95 537.446ZM983.713 543.493C984.079 543.538 984.421 543.712 984.372 543.97C984.507 544.251 984.251 544.617 983.86 544.702C981.932 544.998 979.98 545.423 978.235 545.74C976.1 546.143 973.964 546.545 971.853 546.818C971.463 546.903 970.938 546.707 970.804 546.426C970.669 546.145 970.925 545.779 971.316 545.694C973.451 545.292 975.587 544.889 977.698 544.616C979.626 544.321 981.578 543.896 983.323 543.578C983.53 543.471 983.713 543.493 983.713 543.493ZM959.785 548.265C960.151 548.309 960.31 548.461 960.469 548.612C960.603 548.894 960.347 549.26 959.932 549.474C958.346 549.943 956.784 550.283 955.198 550.752C953.014 551.413 950.805 552.204 948.78 553.017C948.365 553.232 947.84 553.035 947.523 552.732C947.206 552.429 947.462 552.063 947.876 551.849C950.085 551.058 952.293 550.267 954.502 549.476C956.088 549.007 957.491 548.516 959.236 548.198C959.602 548.243 959.785 548.265 959.785 548.265ZM938.519 556.801C938.702 556.823 938.885 556.845 939.044 556.997C939.361 557.3 939.288 557.689 938.873 557.903C935.738 559.64 932.737 561.658 930.077 563.85C929.846 564.087 929.272 564.15 928.772 563.824C928.43 563.65 928.32 563.24 928.759 562.896C931.601 560.726 934.627 558.579 937.762 556.842C937.97 556.734 938.153 556.757 938.519 556.801ZM922.221 569.779C922.404 569.801 922.404 569.801 922.587 569.824C922.929 569.998 923.222 570.43 922.807 570.645C920.673 573.033 918.673 575.702 917.063 578.286C916.807 578.652 916.417 578.737 915.892 578.541C915.367 578.345 915.233 578.064 915.489 577.698C917.123 574.984 919.123 572.315 921.282 569.797C921.465 569.82 921.855 569.735 922.221 569.779ZM912.466 585.802C913.015 585.869 913.308 586.301 913.26 586.56C912.528 588.457 912.163 590.398 911.798 592.339C911.627 593.245 911.433 594.28 911.445 595.208C911.372 595.597 910.957 595.811 910.408 595.744C909.859 595.678 909.542 595.374 909.615 594.986C909.809 593.951 909.797 593.023 909.992 591.988C910.357 590.046 910.905 588.128 911.661 586.101C911.685 585.972 912.1 585.758 912.466 585.802ZM910.644 603.45C911.01 603.495 911.327 603.798 911.461 604.079C911.731 606.627 912.159 609.326 912.991 612.868C913.101 613.279 912.686 613.493 912.295 613.578C911.722 613.641 911.405 613.338 911.27 613.057C910.439 609.514 910.035 606.685 909.765 604.138C909.655 603.727 910.07 603.513 910.644 603.45C910.46 603.428 910.46 603.428 910.644 603.45ZM914.044 621.203C914.41 621.247 914.752 621.421 914.886 621.702C915.559 625.093 916.012 627.663 916.306 630.081L916.391 630.621C916.501 631.032 916.086 631.246 915.513 631.309C914.939 631.372 914.622 631.068 914.512 630.658L914.426 630.118C914.132 627.7 913.68 625.13 912.983 621.868C912.873 621.458 913.287 621.243 913.678 621.159C913.861 621.181 913.861 621.181 914.044 621.203ZM915.748 639.015C916.114 639.059 916.615 639.385 916.566 639.643C916.445 642.276 916.141 644.886 915.654 647.475C915.581 647.863 915.508 648.251 915.435 648.639C915.362 649.028 914.947 649.242 914.398 649.175C913.849 649.108 913.532 648.805 913.605 648.417C913.678 648.029 913.751 647.641 913.824 647.252C914.286 644.794 914.59 642.183 914.711 639.551C914.76 639.292 915.199 638.948 915.748 639.015ZM912.071 656.57C912.62 656.636 912.913 657.069 912.864 657.328C911.755 660.238 910.487 662.996 908.853 665.709C908.597 666.075 908.207 666.16 907.682 665.964C907.157 665.768 907.023 665.487 907.279 665.121C908.888 662.537 910.181 659.649 911.265 656.869C911.131 656.588 911.705 656.525 912.071 656.57ZM902.657 672.767C902.84 672.789 902.84 672.789 903.023 672.811C903.365 672.985 903.658 673.418 903.426 673.654C901.451 676.194 899.133 678.56 896.657 680.774L896.449 680.881C896.218 681.118 895.644 681.18 895.119 680.984C894.778 680.81 894.668 680.4 894.924 680.034L895.131 679.927C897.607 677.713 899.742 675.325 901.876 672.936C901.901 672.807 902.291 672.722 902.657 672.767ZM887.361 686.396C887.544 686.418 887.727 686.44 887.885 686.592C888.203 686.895 888.13 687.283 887.898 687.52C884.897 689.538 881.554 691.382 878.26 692.968C877.845 693.182 877.296 693.115 876.979 692.812C876.661 692.509 876.734 692.121 877.149 691.906C880.443 690.321 883.786 688.477 886.58 686.566C886.811 686.329 887.178 686.374 887.361 686.396ZM866.998 696.101C867.364 696.145 867.523 696.297 867.682 696.448C867.999 696.752 867.743 697.118 867.328 697.332C863.533 698.592 859.58 699.7 855.676 700.55C855.285 700.635 854.76 700.439 854.626 700.158C854.492 699.877 854.748 699.511 855.138 699.426C859.043 698.576 862.789 697.575 866.583 696.315C866.608 696.186 866.815 696.078 866.998 696.101ZM843.412 701.046C843.778 701.09 844.12 701.264 844.254 701.545C844.364 701.956 843.949 702.17 843.559 702.255C839.361 702.672 835.053 702.678 830.953 702.577C830.404 702.511 830.086 702.208 830.135 701.949C830.208 701.56 830.623 701.346 830.989 701.391C835.065 701.621 839.214 701.463 843.387 701.175C843.229 701.024 843.229 701.024 843.412 701.046Z" fill="#0B0033" fill-opacity="0.15"/>
<path d="M1268.39 827.417C1265.88 818.943 1245.81 745.3 1232.91 697.482C1232.8 696.978 1232.57 696.373 1232.46 695.868C1232.12 694.557 1231.77 693.346 1231.43 692.136L1229.61 692.64C1229.95 693.851 1230.29 695.061 1230.63 696.373C1230.75 696.877 1230.98 697.482 1231.09 697.987C1245.58 751.454 1266.34 828.224 1267.03 828.93L1267.48 829.435L1370.73 797.556L1370.27 795.942L1268.39 827.417ZM1228.47 685.074L1227.67 685.276L1227.9 686.083C1228.35 687.697 1228.81 689.311 1229.26 691.026C1229.38 691.53 1229.61 692.136 1229.72 692.64C1230.06 693.851 1230.41 695.061 1230.75 696.373C1230.86 696.877 1231.09 697.482 1231.2 697.987C1245.69 751.454 1266.45 828.224 1267.14 828.93L1267.6 829.435L1370.84 797.556L1372.66 796.951L1375.06 796.245L1376.89 795.639L1382.13 794.025L1382.93 793.723L1339.58 655.012L1339.35 654.204L1228.47 685.074ZM1380.42 792.916L1376.09 794.227L1374.26 794.832L1371.87 795.539L1370.04 796.144L1268.39 827.518C1265.88 819.044 1245.81 745.401 1232.91 697.583C1232.8 697.079 1232.57 696.474 1232.46 695.969C1232.12 694.658 1231.77 693.447 1231.43 692.237C1231.32 691.631 1231.09 691.127 1230.98 690.622C1230.63 689.21 1230.18 687.899 1229.83 686.587L1337.76 656.726L1380.42 792.916Z" fill="#0B0033" fill-opacity="0.15"/>
<path d="M1374.26 794.832L1374.83 796.446L1375.97 800.28L1373.58 800.986L1371.75 801.591L1263.95 834.882C1261.32 826.004 1239.76 746.611 1226.87 699.197C1226.75 698.592 1226.53 698.088 1226.41 697.583C1226.07 696.272 1225.73 695.061 1225.39 693.851L1229.49 692.741L1231.32 692.236C1231.2 691.631 1230.98 691.127 1230.86 690.622L1229.04 691.127L1223.9 692.539L1222.99 692.741L1223.22 693.548C1223.67 695.061 1224.02 696.574 1224.47 698.188C1224.59 698.693 1224.82 699.298 1224.93 699.803C1239.42 753.269 1261.78 835.689 1262.35 836.496L1262.8 837L1372.09 803.306L1373.92 802.701L1377.23 801.692L1378.03 801.39L1376.32 795.942L1375.86 794.328L1374.26 794.832ZM1264.06 834.781C1261.44 825.904 1239.87 746.51 1226.98 699.096L1225.16 699.601C1239.65 753.068 1262.01 835.487 1262.58 836.294L1263.03 836.799L1372.32 803.105L1371.87 801.49L1264.06 834.781Z" fill="#0B0033" fill-opacity="0.15"/>
<path d="M1230.63 696.373C1230.75 696.877 1230.98 697.482 1231.09 697.987L1232.92 697.482C1232.8 696.978 1232.57 696.373 1232.46 695.868L1230.63 696.373ZM1370.04 796.043L1370.5 797.657L1372.32 797.052L1371.87 795.438L1370.04 796.043ZM1372.32 803.206L1373.46 806.736L1261.44 841.339C1258.7 832.158 1235.54 746.712 1222.99 700.307L1225.16 699.702L1226.98 699.197C1226.87 698.592 1226.64 698.088 1226.53 697.583L1224.7 698.088L1220.71 699.197L1220.94 700.004C1235.31 753.068 1259.38 842.146 1260.07 842.953L1260.52 843.457L1375.06 808.149L1375.86 807.846L1374.26 802.701L1373.69 801.087L1371.87 801.692L1372.32 803.206Z" fill="#0B0033" fill-opacity="0.15"/>
<path d="M1266.23 736.927L1252.88 696.07L1329.77 673.17L1344.03 714.632L1266.23 736.927ZM1255.05 697.079L1267.48 735.01L1341.98 713.724L1328.74 675.188L1255.05 697.079Z" fill="#0B0033" fill-opacity="0.15"/>
<path d="M1272.5 814.302C1270.68 814.302 1268.85 813.495 1267.71 812.083C1266.8 810.973 1266.57 809.561 1266.8 808.25C1267.14 806.938 1267.94 805.728 1269.31 805.021C1271.93 803.508 1275.58 804.113 1277.29 806.434C1278.21 807.543 1278.43 808.956 1278.21 810.267C1277.86 811.579 1277.06 812.789 1275.7 813.495C1274.78 814 1273.64 814.302 1272.5 814.302ZM1272.5 805.828C1271.82 805.828 1271.02 806.03 1270.33 806.434C1269.42 806.938 1268.85 807.745 1268.74 808.552C1268.51 809.46 1268.74 810.368 1269.31 811.074C1270.45 812.587 1272.84 813.092 1274.67 811.982C1275.58 811.478 1276.15 810.671 1276.27 809.864C1276.49 808.956 1276.27 808.048 1275.7 807.342C1275.01 806.333 1273.76 805.828 1272.5 805.828Z" fill="#0B0033" fill-opacity="0.15"/>
<path d="M1265.54 789.587C1263.72 789.587 1261.89 788.78 1260.75 787.367C1259.84 786.257 1259.61 784.845 1259.84 783.534C1260.18 782.222 1260.98 781.012 1262.35 780.306C1264.97 778.792 1268.62 779.398 1270.33 781.718C1271.25 782.828 1271.47 784.24 1271.25 785.551C1270.9 786.863 1270.11 788.073 1268.74 788.78C1267.71 789.284 1266.68 789.587 1265.54 789.587ZM1265.54 781.113C1264.86 781.113 1264.06 781.314 1263.37 781.718C1262.46 782.222 1261.89 783.029 1261.78 783.836C1261.55 784.744 1261.78 785.652 1262.35 786.358C1263.49 787.872 1265.88 788.376 1267.71 787.266C1268.62 786.762 1269.19 785.955 1269.31 785.148C1269.53 784.24 1269.31 783.332 1268.74 782.626C1268.05 781.617 1266.8 781.113 1265.54 781.113Z" fill="#0B0033" fill-opacity="0.15"/>
<path d="M1258.81 764.467C1258.7 764.467 1258.7 764.467 1258.81 764.467C1257.21 764.467 1255.73 763.862 1254.7 762.954C1253.68 761.945 1253.11 760.735 1253.11 759.322C1253.11 756.599 1255.73 754.278 1258.93 754.278H1259.04C1260.64 754.278 1262.01 754.884 1263.15 755.792C1264.17 756.8 1264.74 758.011 1264.74 759.423C1264.74 760.735 1264.06 762.046 1263.03 762.954C1261.66 763.963 1260.29 764.467 1258.81 764.467ZM1258.81 755.993C1256.76 755.993 1254.93 757.506 1254.93 759.322C1254.93 760.23 1255.27 761.037 1255.96 761.743C1256.64 762.349 1257.67 762.752 1258.7 762.752C1259.72 762.752 1260.75 762.45 1261.44 761.844C1262.12 761.239 1262.58 760.331 1262.58 759.524C1262.58 758.616 1262.23 757.809 1261.55 757.103C1260.86 756.296 1259.84 755.993 1258.81 755.993Z" fill="#0B0033" fill-opacity="0.15"/>
<path d="M1250.83 738.743C1249.23 738.743 1247.75 738.137 1246.72 737.229C1245.69 736.22 1245.12 735.01 1245.12 733.598C1245.12 730.874 1247.75 728.554 1250.94 728.554H1251.05C1254.25 728.554 1256.76 730.874 1256.76 733.698C1256.53 736.523 1254.02 738.743 1250.83 738.743ZM1250.83 730.269C1248.77 730.269 1246.95 731.782 1246.95 733.598C1246.95 734.506 1247.29 735.313 1247.97 736.019C1248.66 736.624 1249.69 737.028 1250.71 737.028C1250.71 737.028 1250.71 737.028 1250.83 737.028C1252.88 737.028 1254.59 735.514 1254.7 733.698C1254.7 731.883 1252.99 730.369 1250.83 730.269Z" fill="#0B0033" fill-opacity="0.15"/>
<path d="M1242.73 708.075C1241.13 708.075 1239.65 707.47 1238.62 706.562C1237.59 705.553 1237.02 704.342 1237.02 702.93C1237.02 700.206 1239.65 697.886 1242.84 697.886H1242.95C1244.55 697.886 1245.92 698.491 1247.06 699.399C1248.09 700.408 1248.66 701.619 1248.66 703.031C1248.43 705.856 1245.92 708.075 1242.73 708.075ZM1242.73 699.601C1240.67 699.601 1238.85 701.114 1238.85 702.93C1238.85 703.838 1239.19 704.645 1239.87 705.351C1240.56 705.956 1241.59 706.36 1242.61 706.36C1242.61 706.36 1242.61 706.36 1242.73 706.36C1244.78 706.36 1246.6 704.847 1246.6 703.031C1246.6 702.123 1246.26 701.316 1245.58 700.61C1244.78 700.004 1243.87 699.601 1242.73 699.601Z" fill="#0B0033" fill-opacity="0.15"/>
<path d="M1255.62 825.198C1255.5 825.198 1255.28 825.197 1255.16 825.097C1251.74 823.382 1250.03 819.346 1251.05 815.715C1251.85 812.688 1254.36 809.964 1258.13 808.149C1262.58 805.929 1269.19 805.122 1273.98 808.35C1274.44 808.653 1274.44 809.157 1274.21 809.561C1273.87 809.964 1273.3 809.965 1272.84 809.763C1268.74 807.039 1263.03 807.745 1259.04 809.662C1257.1 810.57 1253.79 812.688 1252.88 816.219C1252.08 819.145 1253.45 822.474 1256.07 823.785C1256.53 823.987 1256.64 824.491 1256.42 824.895C1256.3 824.996 1255.96 825.198 1255.62 825.198Z" fill="#0B0033" fill-opacity="0.15"/>
<path d="M1248.2 801.289C1248.09 801.289 1247.86 801.289 1247.75 801.188C1244.32 799.473 1242.61 795.337 1243.87 791.604C1244.89 788.578 1247.63 785.854 1251.51 783.937C1256.19 781.718 1263.15 780.911 1267.82 784.139C1268.28 784.442 1268.28 784.946 1268.05 785.35C1267.71 785.753 1267.14 785.753 1266.68 785.551C1262.58 782.727 1256.53 783.534 1252.42 785.451C1250.37 786.459 1246.83 788.578 1245.69 792.109C1244.78 794.631 1245.69 798.262 1248.66 799.675C1249.11 799.877 1249.23 800.381 1249 800.784C1248.77 801.087 1248.54 801.289 1248.2 801.289Z" fill="#0B0033" fill-opacity="0.15"/>
<path d="M1240.44 774.455C1240.22 774.455 1240.1 774.455 1239.87 774.354C1236.57 772.437 1235.2 768.301 1236.68 764.568C1237.93 761.542 1240.79 759.02 1244.89 757.406C1249.8 755.388 1256.64 754.984 1261.21 758.515C1261.55 758.818 1261.66 759.322 1261.32 759.726C1260.98 760.029 1260.41 760.129 1259.95 759.827C1256.07 756.8 1250.03 757.204 1245.69 759.02C1243.64 759.827 1239.87 761.844 1238.51 765.274C1237.48 767.796 1238.05 771.327 1240.9 773.042C1241.36 773.345 1241.47 773.849 1241.13 774.253C1241.02 774.253 1240.79 774.455 1240.44 774.455Z" fill="#0B0033" fill-opacity="0.15"/>
<path d="M1233.37 748.024C1233.14 748.024 1233.03 748.024 1232.8 747.923C1229.61 746.006 1228.24 741.87 1229.61 738.238C1230.75 735.313 1233.49 732.791 1237.36 731.277C1242.04 729.361 1248.66 729.159 1252.99 732.69C1253.34 732.992 1253.45 733.497 1253.11 733.9C1252.77 734.203 1252.19 734.304 1251.74 734.001C1247.97 730.975 1242.16 731.176 1238.05 732.891C1236.11 733.698 1232.57 735.514 1231.32 738.843C1230.29 741.668 1231.32 745.098 1233.83 746.611C1234.28 746.914 1234.4 747.418 1234.06 747.721C1234.06 747.923 1233.71 748.024 1233.37 748.024Z" fill="#0B0033" fill-opacity="0.15"/>
<path d="M1225.39 717.053C1225.16 717.053 1225.04 717.053 1224.81 716.952C1221.73 715.036 1220.25 710.9 1221.51 707.369C1222.53 704.443 1225.16 702.022 1228.81 700.509C1233.26 698.693 1239.65 698.491 1243.98 702.123C1244.32 702.426 1244.32 702.93 1243.98 703.233C1243.64 703.535 1243.07 703.535 1242.73 703.233C1238.96 700.105 1233.37 700.307 1229.49 701.921C1227.67 702.627 1224.36 704.443 1223.1 707.772C1222.08 710.597 1223.22 714.027 1225.73 715.54C1226.18 715.843 1226.18 716.347 1225.96 716.65C1225.96 716.852 1225.73 717.053 1225.39 717.053Z" fill="#0B0033" fill-opacity="0.15"/>
<path d="M826.664 700.029C826.726 699.64 826.493 699.097 826.11 698.826L792.669 678.135C792.669 678.135 792.669 678.135 792.581 678.019C792.493 677.902 792.374 677.98 792.287 677.864C792.287 677.864 792.287 677.864 792.199 677.748L642.773 656.458C642.566 656.42 642.447 656.498 642.24 656.46C641.439 656.812 634.492 659.634 632.957 671.263C632.048 678.302 633.734 682.418 635.493 684.744C636.812 686.49 638.198 687.146 638.286 687.262C638.374 687.379 638.493 687.301 638.493 687.301L788.043 711.816C788.162 711.738 788.25 711.855 788.369 711.776C788.369 711.776 788.488 711.698 788.576 711.815L825.769 700.965C826.214 700.847 826.571 700.613 826.664 700.029ZM781.896 682.252L647.087 661.459C646.679 660.683 646.151 659.985 645.711 659.403L787.745 679.628L781.896 682.252ZM781.405 684.664L787.116 692.926L650.119 671.829C650.052 668.914 649.301 666.273 648.37 664.099L781.405 684.664ZM786.537 695.221L778.949 700.727L648.191 680.583C649.091 678.947 649.815 677.079 649.98 674.707C650.011 674.512 650.042 674.318 650.073 674.123L786.537 695.221ZM646.696 682.609C646.784 682.725 646.903 682.647 646.991 682.764L778.665 703.177L784.66 708.989L642.853 686.004C644.25 685.261 645.589 684.207 646.696 682.609ZM788.534 709.404L781.158 702.236L790.323 695.52C790.442 695.442 790.442 695.442 790.473 695.247L790.592 695.169C790.711 695.091 790.742 694.897 790.773 694.702C790.773 694.702 790.773 694.702 790.685 694.586C790.597 694.47 790.716 694.391 790.628 694.275L790.54 694.159L790.452 694.042L783.717 684.19L791.733 680.665L810.619 692.461L809.74 703.31L788.534 709.404ZM635.29 671.994C636.36 663.282 640.673 660.275 642.308 659.376C643.953 661.081 648.588 666.742 647.585 674.365C646.551 682.182 640.821 684.727 639.01 685.394C637.686 684.349 634.189 680.9 635.29 671.994Z" fill="#0B0033" fill-opacity="0.15"/>
<path d="M215.684 829.142C207.226 830.123 202.748 824.471 198.308 818.985C197.312 817.729 196.317 816.473 195.36 815.384C193.944 813.834 192.7 812.264 191.052 811.255C189.788 810.373 188.12 810.053 186.797 809.692C183.98 808.99 181.027 808.475 178.075 807.961C174.95 807.466 171.615 806.824 168.414 805.995C150.07 800.923 133.373 785.202 125.024 764.913C117.191 746.107 117.164 726.566 125.011 711.256C133.589 694.489 151.918 683.963 170.939 685.014C188.33 685.911 206.474 696.321 218.396 712.082C228.366 725.497 234.285 742.125 235.942 761.819C236.412 767.765 236.555 774.606 233.669 780.598L233.304 781.326C232.708 782.595 232.073 783.697 232.302 784.699C232.358 785.721 233.104 786.663 233.678 787.625L242.823 801.308C243.932 803.065 245.501 805.283 245.555 807.848C245.55 810.935 243.38 813.072 241.172 815.042C235.123 820.373 226.904 827.84 216.624 829.376C216.03 829.102 215.857 829.122 215.684 829.142ZM197.607 813.581C198.774 814.817 199.77 816.073 200.765 817.329C205.205 822.814 208.516 827.23 215.555 826.242C224.493 825.034 231.328 819.27 238.663 812.59C240.603 810.994 242.159 809.271 242.219 807.206C242.184 805.496 241.074 803.739 240.041 802.316L230.896 788.634C230.111 787.525 229.251 786.082 229.042 784.391C228.796 782.534 229.661 780.891 230.392 779.435L230.758 778.707C233.278 773.443 233.211 766.936 232.817 761.325C231.312 742.299 225.68 726.152 215.997 713.217C204.783 698.232 187.445 688.243 171.127 687.392C153.218 686.555 135.811 696.46 127.732 712.312C120.251 726.894 120.26 745.579 127.768 763.737C135.716 783.044 151.532 798.01 168.936 802.849C171.965 803.698 175.262 804.172 178.425 804.834C181.377 805.349 184.33 805.864 187.358 806.712C189.064 807.2 190.942 807.668 192.59 808.677C194.525 810.167 196.152 811.864 197.607 813.581Z" fill="#0B0033" fill-opacity="0.15"/>
<path d="M233.063 851.691C232.536 851.752 231.834 851.833 231.268 851.725C228.733 851.671 225.712 850.283 224.389 847.657C224.058 847.001 223.903 846.324 223.787 845.816C223.632 845.139 223.477 844.462 223.048 844.165C222.581 843.698 221.625 843.461 220.631 843.055C219.11 842.709 217.161 842.066 216.246 840.435C215.662 839.461 215.567 838.256 215.724 837.369C215.783 836.841 215.804 836.144 215.551 835.826C215.259 835.339 214.654 835.061 214.011 834.615C213.622 834.486 213.368 834.168 212.979 834.039C209.51 831.488 208.267 827.637 209.619 823.312C209.815 822.594 210.616 822.154 211.396 822.412C212.175 822.669 212.72 823.474 212.524 824.192C211.761 826.364 211.581 829.511 214.581 831.596C214.796 831.745 215.01 831.894 215.439 832.192C216.296 832.787 217.543 833.512 218.205 834.825C218.788 835.799 218.67 836.855 218.688 837.721C218.629 838.249 218.608 838.946 218.862 839.264C219.153 839.752 219.933 840.009 221.278 840.374C222.624 840.74 224.183 841.254 225.371 842.506C226.306 843.441 226.539 844.456 226.772 845.471C226.888 845.979 226.965 846.317 227.257 846.804C227.957 848.287 229.731 848.95 231.175 848.957C233.008 849.092 234.823 848.361 236.638 847.63C245.323 843.847 252.84 838.114 258.214 830.893C259.21 829.735 260.129 828.239 260.307 826.656C260.386 825.431 260.037 823.908 258.829 823.353C258.615 823.204 258.439 823.224 258.225 823.075C257.796 822.777 257.192 822.5 256.549 822.053C255.185 820.821 255.012 819.278 255.092 818.053C255.073 817.187 254.918 816.51 254.665 816.192C254.412 815.874 253.808 815.596 253.067 815.508C252.073 815.102 250.903 814.716 249.968 813.782C248.994 812.679 248.86 811.305 248.803 810.27C248.725 809.931 248.823 809.573 248.746 809.234C248.513 808.219 247.968 807.414 247.072 806.649C246.176 805.884 245.006 805.498 243.953 805.62C243.075 805.722 242.393 805.106 242.199 804.26C242.005 803.414 242.591 802.825 243.469 802.723C245.225 802.52 247.174 803.163 248.714 804.375C250.253 805.586 251.343 807.197 251.555 808.909C251.632 809.248 251.573 809.776 251.651 810.114C251.63 810.811 251.785 811.488 252.038 811.806C252.291 812.124 252.896 812.402 253.637 812.49C254.631 812.896 255.801 813.282 256.735 814.216C257.748 815.488 257.882 816.862 257.94 817.898C257.958 818.764 258.113 819.441 258.366 819.759C258.58 819.908 258.795 820.057 259.185 820.185C259.399 820.334 259.789 820.463 260.003 820.612C262.498 822.06 263.332 824.916 263.095 827.028C262.858 829.14 261.666 831.014 260.533 832.361C254.885 839.962 246.919 846.094 237.883 849.918C236.497 850.947 234.818 851.488 233.063 851.691Z" fill="#0B0033" fill-opacity="0.15"/>
<path d="M216.858 837.339C216.144 837.423 215.529 837.138 215.192 836.464C214.856 835.789 215.016 834.879 215.83 834.427C216.009 834.406 228.637 828.649 238.529 820.535C239.165 820.104 240.097 820.173 240.791 820.806C241.306 821.459 241.325 822.349 240.729 822.954C230.519 831.283 217.851 836.867 217.355 837.103C217.037 837.319 216.858 837.339 216.858 837.339Z" fill="#0B0033" fill-opacity="0.15"/>
<path d="M242.58 836.909C242.049 836.971 241.479 836.861 241.184 836.369C240.674 835.726 240.655 834.85 241.246 834.255C241.423 834.234 252.216 825.786 257.318 820.28C257.909 819.685 258.834 819.753 259.483 820.205C260.17 820.827 260.189 821.703 259.775 822.277C254.534 827.975 243.88 836.232 243.427 836.635C243.112 836.847 242.934 836.868 242.58 836.909Z" fill="#0B0033" fill-opacity="0.15"/>
<path d="M219.504 824.912C218.985 824.973 218.216 824.718 217.89 824.069C209.524 810.787 199.504 798.039 188.502 786.436C185.948 783.813 183.183 781.043 180.148 778.648C173.222 780.997 164.475 779.264 158.675 774.098L158.425 773.783L158.349 773.449C157.755 771.629 158.546 769.648 160.509 768.905C162.125 768.202 163.759 768.356 165.22 768.53C170.892 769.246 176.119 771.903 180.633 775.329C186.097 772.806 189.624 767.245 189.844 761.209C184.289 759.449 178.853 755.1 174.516 748.563C173.442 746.97 172.54 745.357 172.466 743.477C172.353 741.429 173.972 739.181 176.471 739.234C177.548 739.281 178.355 739.703 179.162 740.124C186.637 744.066 191.857 751.359 192.712 758.988C192.712 758.988 192.712 758.988 192.885 758.968C196.788 759.717 200.962 758.546 203.83 756.324L199.417 749.452C197.767 746.896 195.617 743.711 195.68 740.097C195.741 738.03 196.84 735.841 198.514 734.617C199.881 733.6 201.612 733.399 203.284 733.72C205.168 734.189 206.724 735.554 208.26 737.608C211.983 743.015 212.338 750.014 209.043 755.033C208.639 755.595 208.099 756.344 207.695 756.906L241.926 810.291C242.425 810.92 242.097 811.817 241.481 812.231C240.865 812.646 239.885 812.245 239.386 811.616L205.346 759.068C201.823 761.537 197.303 762.748 192.67 761.912C192.391 768.47 188.768 774.385 183.072 777.45C185.723 779.718 188.277 782.341 190.581 784.65C201.795 796.4 211.853 809.314 220.257 822.764C220.756 823.393 220.428 824.29 219.812 824.705C219.85 824.872 219.677 824.892 219.504 824.912ZM161.138 772.438C165.518 776.052 171.9 777.544 177.324 776.399C173.52 773.75 169.35 771.829 164.967 771.307C164.063 771.24 162.775 771.046 161.986 771.481C161.505 771.709 161.062 772.104 161.138 772.438ZM176.256 742.179C175.736 742.239 175.197 742.988 175.215 743.845C175.31 745.036 176.096 746.147 176.71 747.278C179.071 750.61 183.486 755.936 189.54 758.325C188.472 752.095 184.077 746.08 177.793 742.687C177.198 742.413 176.775 742.119 176.256 742.179ZM201.646 736.658C201.127 736.718 200.646 736.946 200.338 737.153C199.279 737.963 198.508 739.254 198.429 740.465C198.31 743.055 200.21 745.926 201.611 748.167L205.525 754.41C205.66 754.223 205.93 753.848 206.064 753.661C208.685 749.579 208.559 743.583 205.411 739.14C204.375 737.715 203.492 736.959 202.338 736.577C202.338 736.577 201.992 736.618 201.646 736.658Z" fill="#0B0033" fill-opacity="0.15"/>
<path d="M984.125 88.9804C982.596 88.5508 981.067 88.1213 979.66 87.3537C971.354 83.5317 964.887 75.7608 962.347 67.6044C962.068 66.0375 961.407 64.3633 961.128 62.7965C960.571 59.6628 959.892 56.8671 958.327 54.1946C956.623 50.7388 952.522 48.098 948.317 46.9167C943.73 45.628 939.039 45.7988 935.392 47.7513C932.37 49.135 929.991 51.0716 927.23 52.9008C921.968 57.0045 916.706 61.1083 909.079 60.0819C900.948 59.2862 894.882 52.7442 892.166 41.5615C890.408 34.7413 888.129 27.0302 881.873 24.5286C875.618 22.0269 868.827 25.7011 861.411 29.944C857.139 32.465 852.484 34.8788 847.811 36.171C847.308 36.4016 846.543 36.1869 846.161 36.0795C838.898 34.0391 833.214 27.6044 833.107 20.8757C833.21 19.4163 834.461 18.279 835.729 18.2632C837.379 18.3547 838.665 19.4603 838.683 20.5817C838.755 25.0675 842.37 29.0603 846.836 30.687C850.623 29.518 854.391 27.2275 858.039 25.2751C865.958 20.8016 874.503 15.7595 883.695 19.4583C892.505 23.0497 895.063 32.3276 897.342 40.0386C898.822 45.2919 902.005 54.0012 909.371 54.5821C914.201 55.1947 918.334 51.8903 922.971 48.3552C925.854 46.188 928.737 44.0207 932.262 42.4063C937.299 40.1 943.762 39.6829 949.878 41.4011C955.994 43.1193 960.999 46.7582 963.607 51.2123C965.433 54.3301 966.251 57.9093 966.808 61.043C967.087 62.6099 967.487 63.8386 967.766 65.4055C969.906 72.3331 975.59 78.7678 982.489 81.8222C985.686 83.4648 991.037 84.9682 996.717 83.2147C1000.5 82.0457 1004.39 79.4172 1007.9 76.6814C1014.05 72.4544 1020.32 67.8894 1028.33 69.0232C1035.57 69.9421 1041.62 75.3627 1045.95 84.3941C1046.47 85.2849 1046.87 86.5137 1047.4 87.4046C1049.76 92.5347 1051.74 97.5574 1056.11 100.644C1058.8 102.517 1063.25 103.022 1066.15 101.976C1067.54 101.622 1069.17 100.592 1069.9 98.5643C1070.38 97.2122 1071.63 96.075 1073.16 96.5045C1074.69 96.9341 1075.98 98.0396 1075.49 99.3917C1074.78 102.541 1072.04 105.492 1068.25 106.661C1062.95 108.522 1056.6 107.48 1052.49 104.839C1046.72 100.985 1044.22 95.0716 1041.59 89.4961C1041.07 88.6053 1040.67 87.3764 1040.15 86.4856C1037.79 81.3554 1033.63 75.3504 1027.27 74.3082C1021.68 73.4808 1016.66 76.9085 1011.4 81.0123C1007.38 83.9788 1003.37 86.9452 998.318 88.1301C993.785 90.2057 989.094 90.3765 984.125 88.9804Z" fill="#0B0033" fill-opacity="0.15"/>
<path d="M148.904 903.828C147.078 901.477 149.426 896.775 154.642 893.483C159.598 890.192 165.336 889.722 167.422 892.073C169.248 894.424 166.901 899.126 161.684 902.417C156.468 905.709 150.99 906.414 148.904 903.828Z" fill="#0B0033" fill-opacity="0.15"/>
<path d="M120.735 899.361C118.91 897.01 121.257 892.308 126.474 889.017C131.429 885.725 137.167 885.255 139.254 887.606C141.08 889.957 138.732 894.659 133.516 897.951C128.299 901.242 122.561 901.947 120.735 899.361Z" fill="#0B0033" fill-opacity="0.15"/>
<path d="M134.559 877.261C132.733 874.91 135.081 870.208 140.297 866.917C145.253 863.625 150.991 863.155 153.078 865.506C154.903 867.857 152.556 872.559 147.34 875.851C142.123 879.142 136.646 879.847 134.559 877.261Z" fill="#0B0033" fill-opacity="0.15"/>
<path d="M1411.82 71.5609C1409.99 69.2098 1412.34 64.5078 1417.56 61.2163C1422.51 57.9248 1428.25 57.4546 1430.34 59.8056C1432.16 62.1567 1429.82 66.8588 1424.6 70.1503C1419.38 73.4418 1413.91 74.147 1411.82 71.5609Z" fill="#0B0033" fill-opacity="0.15"/>
<path d="M1383.65 67.094C1381.83 64.7429 1384.17 60.0408 1389.39 56.7494C1394.34 53.4579 1400.08 52.9877 1402.17 55.3387C1404 57.6898 1401.65 62.3918 1396.43 65.6833C1391.21 68.9748 1385.48 69.6801 1383.65 67.094Z" fill="#0B0033" fill-opacity="0.15"/>
<path d="M1397.47 44.9941C1395.65 42.6431 1398 37.941 1403.21 34.6495C1408.17 31.358 1413.91 30.8878 1415.99 33.2389C1417.82 35.5899 1415.47 40.292 1410.25 43.5835C1405.04 46.8749 1399.56 47.5803 1397.47 44.9941Z" fill="#0B0033" fill-opacity="0.15"/>
</g>
<defs>
<clipPath id="clip0_1853_4065">
<rect width="1512" height="982" fill="white"/>
</clipPath>
</defs>
</svg>
