<svg width="27" height="24" viewBox="0 0 27 24" fill="none" xmlns="http://www.w3.org/2000/svg">
<g id="24 / Closebutton">
<rect id="Rectangle 176" x="0.581421" width="25.4512" height="24" rx="12" fill="#FF0060"/>
<g id="24 / Close">
<path id="Vector" fill-rule="evenodd" clip-rule="evenodd" d="M7.78516 6.79308C7.98403 6.60561 8.25371 6.50029 8.53491 6.50029C8.81611 6.50029 9.08579 6.60561 9.28466 6.79308L13.307 10.5861L17.3293 6.79308C17.4272 6.69757 17.5442 6.62139 17.6736 6.56898C17.8029 6.51657 17.9421 6.48898 18.0829 6.48783C18.2237 6.48668 18.3634 6.51198 18.4937 6.56226C18.624 6.61254 18.7424 6.68679 18.842 6.78069C18.9416 6.87458 19.0203 6.98623 19.0736 7.10913C19.1269 7.23202 19.1538 7.3637 19.1526 7.49648C19.1513 7.62926 19.1221 7.76048 19.0665 7.88249C19.0109 8.00449 18.9301 8.11483 18.8288 8.20708L14.8065 12.0001L18.8288 15.7931C19.022 15.9817 19.1289 16.2343 19.1265 16.4965C19.1241 16.7587 19.0125 17.0095 18.8159 17.1949C18.6193 17.3803 18.3533 17.4855 18.0753 17.4878C17.7972 17.49 17.5294 17.3892 17.3293 17.2071L13.307 13.4141L9.28466 17.2071C9.08465 17.3892 8.81678 17.49 8.53873 17.4878C8.26067 17.4855 7.9947 17.3803 7.79808 17.1949C7.60146 17.0095 7.48993 16.7587 7.48751 16.4965C7.4851 16.2343 7.59199 15.9817 7.78516 15.7931L11.8075 12.0001L7.78516 8.20708C7.58635 8.01955 7.47467 7.76525 7.47467 7.50008C7.47467 7.23492 7.58635 6.98061 7.78516 6.79308Z" fill="white"/>
</g>
</g>
</svg>
